Coordinates
version=1
nRows=8
nColumns=40
inDegrees=yes

Units are S.I. units (second, meters, Newtons, ...)
Angles are in degrees.

endheader
time	pelvis_tilt	pelvis_list	pelvis_rotation	pelvis_tx	pelvis_ty	pelvis_tz	hip_flexion_r	hip_adduction_r	hip_rotation_r	knee_angle_r	knee_angle_r_beta	ankle_angle_r	subtalar_angle_r	mtp_angle_r	hip_flexion_l	hip_adduction_l	hip_rotation_l	knee_angle_l	knee_angle_l_beta	ankle_angle_l	subtalar_angle_l	mtp_angle_l	lumbar_extension	lumbar_bending	lumbar_rotation	arm_flex_r	arm_add_r	arm_rot_r	elbow_flex_r	pro_sup_r	wrist_flex_r	wrist_dev_r	arm_flex_l	arm_add_l	arm_rot_l	elbow_flex_l	pro_sup_l	wrist_flex_l	wrist_dev_l
     23.08500000	     -5.08859026	     -5.39718203	     -9.18029448	      0.97057994	      0.92638623	      0.41536026	     25.62038975	     -1.44602047	     -8.26528017	     19.16369503	     19.16369503	      5.91035352	      5.11603821	      1.64390484	      9.56760451	     -4.99860405	    -12.68563237	     22.51637078	     22.51637078	     19.06299522	    -14.05482486	      2.10938893	    -10.29016032	      6.51837853	      1.29587558	    -14.44403876	    -11.68255673	    -17.65513371	     26.63499199	     46.98124059	      0.00000000	      0.00000000	     32.33183233	    -20.67883204	     -8.53926614	     64.89013280	     47.83196305	      0.00000000	      0.00000000
     23.10421429	     -5.04547489	     -5.07520478	     -9.34936094	      0.97032564	      0.92547010	      0.41775351	     25.32034751	     -1.44553586	     -8.84731441	     17.63351556	     17.63351556	      5.87771663	      7.46438529	      2.96741934	      8.98404229	     -4.77644102	    -13.12355558	     22.25469899	     22.25469899	     19.09114198	    -13.76885255	      1.22726966	    -10.20737923	      6.26918207	      1.21290953	    -15.32193870	    -11.57997051	    -17.77577656	     27.88036624	     46.90349389	      0.00000000	      0.00000000	     32.53979809	    -20.92135882	     -9.36018437	     66.56344848	     47.90987498	      0.00000000	      0.00000000
     23.12342857	     -4.98978263	     -4.82381684	     -9.48376786	      0.97031860	      0.92448765	      0.42041817	     24.94168391	     -1.29766815	     -8.90073360	     16.44364366	     16.44364366	      5.51801019	      8.48805482	      3.27816516	      8.43261100	     -4.61300868	    -13.32505064	     22.12908829	     22.12908829	     19.37349479	    -13.66782643	      0.95611693	    -10.03065226	      6.10489705	      1.27025116	    -15.59865410	    -11.51117059	    -17.76398913	     28.09727623	     46.88325606	      0.00000000	      0.00000000	     33.02747796	    -21.10271268	     -9.70070775	     67.20218356	     47.94529067	      0.00000000	      0.00000000
     23.14264286	     -4.96087580	     -4.52152608	     -9.61128213	      0.97052410	      0.92335989	      0.42322938	     24.77307818	     -1.27440075	     -8.89021967	     16.00450480	     16.00450480	      5.20378370	      9.04398121	      3.25914639	      7.96230217	     -4.41914137	    -13.53489135	     22.11276429	     22.11276429	     19.65197428	    -13.61696090	      0.76353335	     -9.80880612	      5.90412228	      1.32307693	    -15.64429627	    -11.47441776	    -17.76748971	     28.27614127	     46.87163711	      0.00000000	      0.00000000	     33.44319204	    -21.24226330	     -9.98467026	     67.67916909	     47.97489649	      0.00000000	      0.00000000
     23.16185714	     -4.82229293	     -4.33977148	     -9.70474120	      0.97126085	      0.92240250	      0.42621830	     24.37121977	     -1.21985152	     -9.09619571	     15.75916482	     15.75916482	      4.24118486	      9.59229082	      0.73644360	      7.26142684	     -4.35377970	    -13.80405341	     21.99355622	     21.99355622	     19.90405157	    -13.34725615	      0.23899324	     -9.70752223	      5.86598267	      1.10942272	    -15.67726455	    -11.56490411	    -17.77417840	     29.49690518	     46.78943625	      0.00000000	      0.00000000	     32.97461516	    -21.09699401	    -11.75567027	     69.40188162	     48.10741247	      0.00000000	      0.00000000
     23.18107143	     -4.68006064	     -4.12176354	     -9.80452962	      0.97214019	      0.92164978	      0.42944902	     24.15275791	     -1.19616732	     -8.85125985	     16.16387020	     16.16387020	      4.02347514	      9.29955093	     -0.00054756	      6.49836055	     -4.20469248	    -13.93583583	     21.75459067	     21.75459067	     20.16141716	    -13.28472806	      0.21584438	     -9.53883654	      5.75925228	      1.23705191	    -15.33004676	    -11.64482153	    -17.69764640	     29.62750271	     46.77430833	      0.00000000	      0.00000000	     33.07398276	    -21.04488594	    -11.99162544	     69.65743054	     48.12375481	      0.00000000	      0.00000000
     23.20028571	     -4.54403405	     -3.99448430	     -9.85431312	      0.97332951	      0.92096214	      0.43294066	     23.79346518	     -1.04957196	     -8.41139329	     16.47222277	     16.47222277	      2.99216271	      8.34642810	     -3.40964987	      5.75406263	     -4.18814476	    -14.04407463	     21.61043495	     21.61043495	     20.47591685	    -13.14523760	      0.24780181	     -9.35197392	      5.77799050	      1.02679783	    -14.64128596	    -11.84424793	    -17.48842087	     30.02856492	     46.71622573	      0.00000000	      0.00000000	     32.55668352	    -20.89888925	    -13.34264151	     70.60935654	     48.20385820	      0.00000000	      0.00000000
     23.21950000	     -4.50422561	     -4.00379101	     -9.86054729	      0.97461900	      0.92049374	      0.43660060	     23.52099367	     -0.86040981	     -8.37901641	     17.04268539	     17.04268539	      3.14673274	      8.13720179	     -3.63202819	      5.09594196	     -4.33596962	    -14.01768743	     21.46586273	     21.46586273	     20.70235033	    -13.15557909	      0.23855748	     -9.03237028	      5.95726574	      1.22353234	    -14.00320596	    -12.00220052	    -17.47932444	     30.26651665	     46.71025253	      0.00000000	      0.00000000	     32.40185424	    -20.65140015	    -13.27415265	     70.58671690	     48.19636306	      0.00000000	      0.00000000
